<?xml version="1.0" encoding="utf-8"?>
<!-- Generator: Adobe Illustrator 15.1.0, SVG Export Plug-In . SVG Version: 6.00 Build 0)  -->
<!DOCTYPE svg PUBLIC "-//W3C//DTD SVG 1.1//EN" "http://www.w3.org/Graphics/SVG/1.1/DTD/svg11.dtd">
<svg version="1.1" id="Layer_1" xmlns="http://www.w3.org/2000/svg" xmlns:xlink="http://www.w3.org/1999/xlink" x="0px" y="0px"
	 width="128px" height="128px" viewBox="0 0 128 128" enable-background="new 0 0 128 128" xml:space="preserve">
<g>
	<circle fill="#4AB8A1" cx="64" cy="64" r="64"/>
	<path fill="#43A691" d="M126.643,77.146c-0.004-0.008-0.006-0.019-0.01-0.024c-0.074-0.228-0.156-0.435-0.246-0.611
		c-0.076-0.229-0.158-0.437-0.248-0.614c-0.076-0.229-0.158-0.437-0.248-0.613c-0.076-0.23-0.158-0.438-0.25-0.616
		c-0.074-0.228-0.156-0.435-0.246-0.61c-0.076-0.229-0.158-0.438-0.248-0.615c-0.076-0.229-0.158-0.437-0.248-0.613
		c-0.076-0.23-0.157-0.438-0.25-0.616c-0.073-0.228-0.155-0.435-0.246-0.61c-0.075-0.229-0.157-0.438-0.248-0.615
		c-0.075-0.229-0.158-0.438-0.25-0.616c-0.074-0.228-0.156-0.435-0.247-0.611c-0.075-0.229-0.157-0.438-0.249-0.616
		c-0.074-0.228-0.156-0.435-0.247-0.61c-0.075-0.229-0.157-0.437-0.248-0.614c-0.075-0.229-0.157-0.438-0.248-0.613
		c-0.075-0.23-0.157-0.438-0.249-0.617c-0.074-0.228-0.156-0.435-0.247-0.61c-0.075-0.229-0.157-0.437-0.248-0.614
		c-0.075-0.229-0.157-0.438-0.248-0.613c-0.075-0.23-0.157-0.438-0.249-0.617c-0.074-0.228-0.156-0.435-0.247-0.61
		c-0.075-0.229-0.157-0.437-0.247-0.614c-0.076-0.23-0.158-0.438-0.25-0.617c-0.074-0.228-0.156-0.435-0.248-0.61
		c-0.074-0.23-0.156-0.438-0.248-0.616c-0.074-0.229-0.156-0.436-0.248-0.611c-0.074-0.229-0.156-0.437-0.248-0.613
		c-0.074-0.229-0.156-0.438-0.248-0.614c-0.074-0.229-0.156-0.438-0.248-0.616c-0.074-0.229-0.156-0.436-0.248-0.611
		c-0.074-0.229-0.156-0.437-0.248-0.613c-0.074-0.229-0.156-0.438-0.248-0.614c-0.074-0.229-0.156-0.438-0.248-0.616
		c-0.074-0.229-0.156-0.436-0.247-0.611c-0.075-0.229-0.157-0.437-0.248-0.613c-0.075-0.229-0.157-0.438-0.248-0.614
		c-0.075-0.229-0.158-0.438-0.25-0.616c-0.074-0.229-0.156-0.437-0.248-0.613c-0.074-0.229-0.156-0.436-0.247-0.611
		c-0.075-0.229-0.157-0.438-0.248-0.614c-0.074-0.229-0.156-0.437-0.248-0.614c-0.074-0.229-0.156-0.438-0.249-0.615
		c-0.073-0.229-0.155-0.436-0.248-0.612c-0.075-0.229-0.155-0.437-0.248-0.614c-0.075-0.229-0.157-0.437-0.249-0.615
		c-0.074-0.229-0.156-0.436-0.248-0.613c-0.074-0.229-0.156-0.437-0.248-0.615c-0.076-0.229-0.156-0.436-0.248-0.613
		c-0.076-0.229-0.158-0.437-0.25-0.615c-0.074-0.229-0.156-0.436-0.248-0.613c-0.074-0.23-0.156-0.438-0.25-0.616
		c-0.074-0.229-0.156-0.435-0.248-0.613c-0.074-0.229-0.156-0.436-0.248-0.613c-0.074-0.229-0.156-0.437-0.248-0.615
		c-0.075-0.229-0.156-0.436-0.248-0.613c-0.074-0.229-0.156-0.437-0.248-0.615c-0.075-0.229-0.156-0.436-0.248-0.613
		c-0.075-0.229-0.157-0.437-0.25-0.615c-0.074-0.229-0.155-0.436-0.247-0.613c-0.074-0.229-0.156-0.437-0.248-0.615
		c-0.075-0.229-0.156-0.436-0.248-0.613c-0.075-0.229-0.157-0.437-0.249-0.615c-0.075-0.229-0.156-0.436-0.248-0.613
		c-0.075-0.23-0.158-0.438-0.25-0.616c-0.074-0.229-0.156-0.435-0.248-0.613c-0.075-0.229-0.156-0.436-0.248-0.613
		c-0.075-0.229-0.156-0.437-0.249-0.615c-0.075-0.229-0.155-0.436-0.248-0.613c-0.075-0.229-0.157-0.437-0.249-0.615
		c-0.074-0.229-0.156-0.437-0.248-0.613c-0.074-0.229-0.156-0.437-0.249-0.615c-0.075-0.229-0.155-0.436-0.247-0.613
		c-0.076-0.229-0.158-0.437-0.25-0.615c-0.074-0.229-0.156-0.436-0.248-0.613c-0.074-0.229-0.156-0.437-0.248-0.615
		c-0.076-0.229-0.156-0.436-0.248-0.613c-0.076-0.229-0.158-0.436-0.248-0.614c-0.076-0.23-0.158-0.438-0.25-0.617
		c-0.074-0.228-0.156-0.434-0.248-0.611c-0.074-0.229-0.156-0.437-0.248-0.615c-0.075-0.229-0.156-0.436-0.248-0.613
		c-0.075-0.229-0.157-0.437-0.25-0.615c-0.074-0.229-0.155-0.436-0.248-0.613c-0.202-0.621-0.463-1.073-0.793-1.282
		c-2.375-1.5-5.5,1.75-8.75,4.5c-2.398,2.03-5.498,3.788-7.293,5.625c-4.853-1.183-11.823-8.241-24.958-8
		c-13.508-0.248-20.501,7.236-25.371,8.095c-1.832-1.693-4.657-3.34-6.879-5.22c-3.25-2.75-6.375-6-8.75-4.5
		c-2.307,1.457-1.312,14.354,0.581,18.527c0.081,0.221,0.164,0.428,0.249,0.616c0.081,0.219,0.163,0.426,0.248,0.612
		c0.081,0.221,0.164,0.428,0.249,0.616c0.081,0.219,0.163,0.426,0.248,0.612c0.082,0.222,0.165,0.431,0.25,0.62
		c0.08,0.218,0.162,0.423,0.246,0.608c0.081,0.22,0.164,0.427,0.248,0.614c0.082,0.221,0.164,0.428,0.249,0.616
		c0.081,0.219,0.163,0.426,0.247,0.612c0.081,0.22,0.164,0.428,0.249,0.615c0.081,0.221,0.164,0.429,0.249,0.616
		c0.081,0.22,0.163,0.426,0.247,0.61c0.081,0.22,0.163,0.429,0.248,0.614c0.081,0.221,0.164,0.428,0.249,0.613
		c0.081,0.223,0.164,0.43,0.249,0.617c0.081,0.219,0.163,0.426,0.247,0.61c0.081,0.222,0.163,0.429,0.248,0.614
		c0.081,0.22,0.164,0.428,0.248,0.613c0.082,0.224,0.166,0.433,0.251,0.621c0.08,0.217,0.162,0.422,0.246,0.606
		c0.081,0.22,0.163,0.428,0.248,0.614c0.081,0.22,0.163,0.428,0.248,0.613c0.081,0.221,0.163,0.429,0.248,0.614
		c0.081,0.222,0.164,0.431,0.249,0.617c0.081,0.219,0.163,0.425,0.247,0.61c0.081,0.22,0.163,0.428,0.248,0.613
		c0.081,0.221,0.163,0.428,0.248,0.614c0.081,0.222,0.164,0.431,0.249,0.617c0.081,0.219,0.163,0.425,0.247,0.61
		c0.081,0.22,0.163,0.428,0.248,0.613c0.081,0.221,0.163,0.428,0.248,0.614c0.082,0.224,0.165,0.433,0.251,0.621
		c0.08,0.217,0.162,0.422,0.245,0.606c0.081,0.22,0.164,0.428,0.248,0.613c0.081,0.221,0.164,0.428,0.248,0.614
		c0.081,0.22,0.164,0.428,0.248,0.614c0.082,0.222,0.165,0.43,0.25,0.617c0.081,0.219,0.163,0.424,0.247,0.609
		c0.081,0.221,0.164,0.428,0.248,0.614c0.081,0.22,0.164,0.428,0.248,0.614c0.082,0.222,0.165,0.43,0.25,0.617
		c0.081,0.219,0.163,0.424,0.247,0.609c0.081,0.221,0.164,0.428,0.248,0.614c0.081,0.22,0.164,0.428,0.248,0.614
		c0.082,0.222,0.165,0.43,0.25,0.617c0.081,0.219,0.164,0.428,0.249,0.613c0.081,0.219,0.163,0.425,0.247,0.609
		c0.081,0.221,0.163,0.429,0.248,0.615c0.081,0.219,0.163,0.428,0.248,0.613c0.081,0.223,0.164,0.43,0.249,0.617
		c0.081,0.219,0.163,0.425,0.247,0.609c0.074,0.201,0.148,0.395,0.226,0.566c0.495,3.614,1.284,7.275,2.51,10.243
		c0.08,0.209,0.164,0.411,0.248,0.614c0.081,0.211,0.166,0.414,0.251,0.619c0.079,0.207,0.162,0.406,0.245,0.607
		c0.08,0.209,0.164,0.411,0.248,0.614c0.081,0.212,0.167,0.417,0.252,0.623c0.079,0.206,0.162,0.405,0.245,0.604
		c0.081,0.211,0.166,0.416,0.251,0.621c0.079,0.207,0.162,0.405,0.245,0.606c0.08,0.209,0.164,0.411,0.248,0.614
		c0.08,0.209,0.164,0.41,0.248,0.613c0.081,0.211,0.166,0.416,0.251,0.62c0.079,0.207,0.162,0.406,0.245,0.607
		c0.08,0.209,0.164,0.411,0.248,0.614c0.08,0.209,0.164,0.41,0.248,0.613c0.081,0.211,0.166,0.415,0.251,0.62
		c0.079,0.207,0.162,0.406,0.245,0.606c0.08,0.21,0.164,0.412,0.248,0.615c0.08,0.209,0.164,0.41,0.248,0.613
		c0.082,0.215,0.168,0.422,0.255,0.631c0.078,0.202,0.16,0.398,0.242,0.598c0.08,0.209,0.164,0.41,0.248,0.613
		c0.08,0.209,0.164,0.411,0.248,0.614c0.08,0.209,0.164,0.411,0.248,0.614c0.081,0.211,0.166,0.415,0.251,0.62
		c0.079,0.206,0.162,0.405,0.245,0.606c0.08,0.209,0.164,0.411,0.248,0.614c0.08,0.209,0.164,0.411,0.248,0.614
		c0.081,0.211,0.166,0.415,0.251,0.619c0.079,0.207,0.162,0.406,0.245,0.607c0.08,0.209,0.164,0.411,0.248,0.614
		c0.08,0.209,0.164,0.411,0.248,0.614c0.082,0.215,0.168,0.422,0.254,0.63c0.078,0.202,0.161,0.399,0.242,0.598
		c0.08,0.209,0.164,0.411,0.248,0.614c0.08,0.209,0.164,0.411,0.248,0.613c0.08,0.209,0.164,0.412,0.248,0.615
		c0.081,0.211,0.166,0.414,0.251,0.619c0.079,0.207,0.162,0.406,0.245,0.607c0.08,0.209,0.164,0.41,0.248,0.613
		c0.08,0.209,0.164,0.412,0.248,0.615c0.081,0.211,0.166,0.414,0.251,0.619c0.079,0.207,0.162,0.406,0.245,0.607
		c0.08,0.209,0.164,0.41,0.248,0.613c0.08,0.209,0.164,0.412,0.248,0.614c0.081,0.212,0.166,0.415,0.251,0.62
		c0.08,0.21,0.165,0.413,0.249,0.616c0.079,0.206,0.162,0.405,0.245,0.604c0.08,0.209,0.164,0.411,0.248,0.614
		c0.08,0.209,0.164,0.411,0.248,0.614c0.081,0.211,0.166,0.415,0.251,0.62c0.079,0.206,0.162,0.405,0.245,0.606
		c0.08,0.209,0.164,0.411,0.248,0.614c0.08,0.209,0.164,0.411,0.248,0.614c0.081,0.211,0.166,0.415,0.251,0.619
		c0.079,0.207,0.162,0.406,0.245,0.607c0.08,0.209,0.164,0.411,0.248,0.614c0.08,0.209,0.164,0.411,0.248,0.614
		c0.081,0.211,0.166,0.414,0.251,0.619c0.079,0.207,0.162,0.406,0.245,0.607c0.081,0.212,0.167,0.417,0.252,0.623
		c0.079,0.206,0.162,0.405,0.245,0.605c0.08,0.209,0.164,0.41,0.248,0.613c0.081,0.211,0.166,0.416,0.251,0.62
		c0.079,0.207,0.162,0.406,0.245,0.607c0.08,0.209,0.164,0.411,0.248,0.614c0.08,0.209,0.164,0.41,0.248,0.613
		c0.081,0.211,0.166,0.415,0.251,0.62c0.079,0.207,0.162,0.406,0.245,0.606c0.04,0.105,0.083,0.207,0.125,0.311
		c2.634,0.331,5.313,0.521,8.036,0.521C94.839,128,120.578,106.186,126.643,77.146z"/>
	<g>
		<ellipse fill="#F2C179" cx="64" cy="91.139" rx="11.583" ry="12.477"/>
		<path fill="#E6B773" d="M64,78.662c-6.397,0-11.583,5.587-11.583,12.477c0,2.486,0.683,4.797,1.847,6.742
			c3.575,0.917,6.84,0.758,9.737-1.367c2.897,2.125,6.162,2.284,9.737,1.367c1.164-1.945,1.847-4.256,1.847-6.742
			C75.583,84.249,70.396,78.662,64,78.662z"/>
		<path fill="#F2C179" d="M40.375,36.889c-0.833-2.624-5.375-4.875-8.625-7.625s-6.375-6-8.75-4.5s-1.25,15.125,0.75,18.875
			s8.375,7.625,13.375,5C42.125,46.014,40.375,36.889,40.375,36.889z"/>
		<path fill="#E6B773" d="M33.55,45.499c-2.447,0-5.329-1.976-6.271-3.743c-1.042-1.954-1.796-8.657-1.598-12.393
			c0.751,0.585,1.58,1.307,2.188,1.837c0.429,0.373,0.861,0.75,1.296,1.117c1.174,0.994,2.424,1.877,3.633,2.731
			c1.29,0.912,3.202,2.263,3.715,3c0.387,2.596,0.124,6.328-1.249,7.049C34.75,45.368,34.189,45.499,33.55,45.499L33.55,45.499z"/>
		<path fill="#F2C179" d="M87.625,36.389c0.833-2.624,5.375-4.875,8.625-7.625s6.375-6,8.75-4.5s1.25,15.125-0.75,18.875
			s-8.375,7.625-13.375,5C85.875,45.514,87.625,36.389,87.625,36.389z"/>
		<path fill="#E6B773" d="M94.45,44.999c-0.64,0-1.2-0.131-1.716-0.402c-1.377-0.723-1.637-4.479-1.242-7.087
			c0.458-0.663,2.402-2.038,3.709-2.961c1.208-0.854,2.458-1.738,3.633-2.731c0.436-0.368,0.867-0.744,1.296-1.117
			c0.608-0.53,1.438-1.251,2.188-1.837c0.197,3.736-0.557,10.438-1.598,12.393C99.777,43.023,96.896,44.999,94.45,44.999z"/>
		<path fill="#F2CB91" d="M89.5,34.514c-4.875-0.75-11.875-8.375-25.5-8.125c-13.625-0.25-20.625,7.375-25.5,8.125
			S27.125,40.764,28,47.389c0.875,6.625,8,10.125,7.75,13s-0.375,26.5,7.625,30.75s15,7.5,20.625,3.375
			c5.625,4.125,12.625,0.875,20.625-3.375s7.875-27.875,7.625-30.75s6.875-6.375,7.75-13C100.875,40.764,94.375,35.264,89.5,34.514z
			"/>
		<g>
			<g>
				<path fill="#F5F5F5" d="M30.25,53.889c0-2.259,1.203-4.23,2.999-5.33c4.565,1.231,7.195,3.732,9.309,3.815l0,0
					c-2.416-0.095-0.538,5.812-4.423,7.541c-0.522,0.142-1.068,0.224-1.634,0.224C33.048,60.139,30.25,57.341,30.25,53.889z"/>
				<circle fill="#242424" cx="36.5" cy="53.889" r="2"/>
			</g>
			<path fill="#CC803D" d="M30.25,52.78c3.708-7.281,9.375-0.488,12.308-0.406c2.526,1.126,9.275,1.569,10.942,0.14
				c1.667-1.097,3-0.518,2.75-1.224c-10.958,2.124-20.27-4.798-23-4.457c-3,0.375-3.958,4.083-5.33,5.833
				C27.147,53.652,30.25,52.78,30.25,52.78z"/>
		</g>
		<path fill="#E6C18A" d="M62.531,93.566c-1.391,1.021-4.398,2.533-5.952,2.748c2.186,0.295,4.999,0.031,7.452-1.854
			C63.522,94.209,63.02,93.926,62.531,93.566z"/>
		<path fill="#E6C18A" d="M89.5,34.514c-4.875-0.75-11.875-8.375-25.5-8.125c-0.516-0.009-1.003,0.013-1.5,0.025
			c12.633,0.313,19.311,7.378,24,8.1c4.875,0.75,11.375,6.25,10.5,12.875c-0.875,6.625-8,10.125-7.75,13s0.375,26.5-7.625,30.75
			c-4.788,2.543-9.214,4.715-13.205,5.176c4.729,0.652,10.184-1.977,16.205-5.176c8-4.25,7.875-27.875,7.625-30.75
			s6.875-6.375,7.75-13C100.875,40.764,94.375,35.264,89.5,34.514z"/>
		<g>
			<g>
				<path fill="#F5F5F5" d="M97.75,53.889c0-2.259-1.203-4.23-2.999-5.33c-4.565,1.231-7.194,3.732-9.31,3.815l0,0
					c2.416-0.095,0.539,5.812,4.424,7.541c0.521,0.142,1.068,0.224,1.634,0.224C94.952,60.139,97.75,57.341,97.75,53.889z"/>
				<circle fill="#242424" cx="91.5" cy="53.889" r="2"/>
			</g>
			<path fill="#CC803D" d="M97.75,52.78c-3.708-7.281-9.375-0.488-12.309-0.406c-2.525,1.126-9.274,1.569-10.941,0.14
				c-1.667-1.097-3-0.518-2.75-1.224c10.958,2.124,20.27-4.798,23-4.457c3,0.375,3.958,4.083,5.33,5.833
				C100.854,53.652,97.75,52.78,97.75,52.78z"/>
		</g>
		<path fill="#F2C179" d="M74.5,52.514c0-14.5-8.25-22.25-10.5-22.25s-10.5,7.75-10.5,22.25c-2.625,2.625-5.125,4.75-4.125,7.625
			s1.875,4.375,1.375,7.5S45.625,97.389,64,94.014c18.375,3.375,13.75-23.25,13.25-26.375s0.375-4.625,1.375-7.5
			S77.125,55.139,74.5,52.514z"/>
		<path fill="#E6B773" d="M74.5,52.514c0-14.5-8.25-22.25-10.5-22.25c-0.361,0-0.888,0.222-1.5,0.617c3.198,2.068,9,9.461,9,21.633
			c2.625,2.625,5.125,4.75,4.125,7.625s-1.875,4.375-1.375,7.5c0.454,2.838,4.307,25.055-8.753,26.584
			c16.614,1.674,12.239-23.547,11.753-26.584c-0.5-3.125,0.375-4.625,1.375-7.5S77.125,55.139,74.5,52.514z"/>
		<path fill="#242424" d="M76.975,58.302c-0.324-1.056-1.439-1.646-2.5-1.325L64,60.193l-10.475-3.217
			c-1.058-0.322-2.174,0.27-2.5,1.324c-0.324,1.057,0.269,2.176,1.325,2.499L62,63.764v21.188c0,1.104,0.896,2,2,2
			c1.104,0,2-0.896,2-2V63.764l9.65-2.963C76.706,60.477,77.299,59.357,76.975,58.302z"/>
	</g>
</g>
</svg>
