<?xml version="1.0" encoding="UTF-8" standalone="no"?>
<svg width="1038" xmlns="http://www.w3.org/2000/svg" height="964">
 <g stroke-width=".5" fill-rule="evenodd">
  <path d="m0 482v-482h1038v964h-1038v-482zm381.5-416.8l-1.5 0.8v0.2q0 0.3 109 0.6l109 0.2v-0.5l-3.5-0.5-3.5-0.5 2-0.5 2-0.5 4.5-0.5 4.5-0.5-3.5-0.5-3.5-0.5 4.5-1q4.5-1 25-1.3l20.5-0.2v186l-11.5 0.5q-11.5 0.5-11.5 2t12.5 2 12.3 2.5q-0.3 2-0.6 3l-0.2 1 28.2 25q28.3 25 28.8 26l0.5 1 0.5 1 0.5 1 0.5 2.5 0.5 2.5v2h-0.5l-0.2 0.5-0.3 0.5-0.3 0.2-0.2 0.3-0.2 0.3-0.3 0.2-0.3 0.2-0.2 0.3-0.2 0.3-0.3 0.2-0.3 0.2-0.2 0.3-93.5 0.3-93.5 0.2-0.2 4.5-0.3 4.5h-0.5v89l165.5 0.2 165.5 0.3 0.2 0.3 0.3 0.2 0.3 32.5 0.2 32.5h-21v-45l-155 0.2-155 0.3-0.2 0.3-0.3 0.2-0.3 22-0.2 22h-20v-45h-289v45h-20l0.2-32.5 0.3-32.5 0.3-0.2 0.2-0.3 154-0.3 154-0.2v-97l-0.5-0.2-0.5-0.3-93-0.5-93-0.5-0.2-0.3-0.3-0.2-0.3-0.2-0.2-0.3-0.2-0.3-0.3-0.2-0.3-0.2-0.2-0.3-0.2-0.3-0.3-0.2-0.3-0.2-0.2-0.3-0.2-0.3-0.3-0.2v-7l2.3-3.8q2.2-3.7 28.4-26.4 26.3-22.8 26.6-26.3 0.2-3.5 1.2-3.5h1l10.5-0.2 10.5-0.3 0.2-0.3 0.3-0.2 0.3-1.5 0.2-1.5-1-0.2-1-0.3-11.5-0.3-11.5-0.2 0.2-92.5q0.3-92.5 9-92.3 8.8 0.3 7.6 1-1.3 0.8 1.4 1.6 2.8 0.7 1.3 1.4zm-181.5 424l59 0.8v-0.5l7.5-0.7q7.5-0.8 7.5 46 0 46.7-5 46.7t-20-0.3l-15-0.2 1.8 1.5q1.7 1.5 0.4 2.3-1.2 0.7 19 2.4 20.3 1.8 33.6 13.6 13.2 11.7 13.4 12l0.3 0.2 0.3 0.2 0.2 0.3 0.2 0.3 0.3 0.2 0.3 0.2 0.2 0.3 0.2 0.3 0.3 0.2 0.5 1 0.5 1v3l-0.3 0.2-0.2 0.3-0.2 0.3-0.3 0.2-0.3 0.2-0.2 0.3h-204l-0.2-0.3-0.3-0.2-0.3-0.2-0.2-0.3-0.2-0.3-0.3-0.2v-4l0.5-1 0.5-1 0.3-0.2 0.2-0.3 0.2-0.3 0.3-0.2 0.3-0.2 0.2-0.3 0.2-0.3q0.3-0.2 13-11.4 12.8-11.3 26.8-11.8l14-0.5 3.5-0.5 3.5-0.5-5-0.5-5-0.5 3.5-0.3 3.5-0.2v-3l1.5-0.2q1.5-0.3 16.5-0.8l15-0.5v-0.5h-20l-16 0.2q-16 0.3-22 0.3h-6l-0.2-0.3-0.3-0.2v-1q0-1-0.3-47-0.2-46 6.8-45.2 7 0.7 66 1.4zm312 0.6l60 0.2v-0.5l5.8-0.7q5.7-0.8 6 46.2 0.2 47-5.3 46.8-5.5-0.3-21.5-0.6l-16-0.2 2.2 1.5q2.3 1.5 1.6 2.3-0.8 0.7 19.4 2.4 20.3 1.8 34 13.6 13.8 11.7 14 12l0.3 0.2 0.5 1 0.5 1 0.3 0.2 0.2 0.3 0.2 0.3 0.3 0.2v5h-0.5v0.5l-0.5 0.3-0.5 0.2h-96l-0.2 2q-0.3 2-0.6 27.5l-0.2 25.5 165.5 0.2 165.5 0.3 0.2 0.3 0.3 0.2v77l-0.3 0.2-0.2 0.3h-19l-0.2-0.3-0.3-0.2-0.3-28.5-0.2-28.5-155 0.2-155 0.3-0.2 0.3-0.3 0.2-0.3 28.5-0.2 28.5-9.5-0.2-9.5-0.3-0.2-0.3-0.3-0.2-0.3-28.5-0.2-28.5h-289l-0.2 28.5-0.3 28.5-0.3 0.2-0.2 0.3-9.5 0.3-9.5 0.2 0.2-39 0.3-39 0.3-0.2 0.2-0.3 154-0.3 154-0.2v-55h-85l-1-0.2-1-0.3-0.2-0.3-0.3-0.2v-6l0.3-1 0.2-1 14.5-12.2q14.5-12.3 20-12.3t12.5 0h7l4-0.5 4-0.5-5-0.5-5-0.5 4.5-0.3 4.5-0.2 1-1.8q1-1.7 9.5-2.2l8.5-0.5v-0.5l-20.5 0.2q-20.5 0.3-26 0.6l-5.5 0.2 0.8-47.5q0.7-47.5 7.4-46.3 6.8 1.3 66.8 1.6zm377.5-1.8l2.5-0.5 1-0.3 1-0.2v96l-1-0.2-1-0.3-5-0.5q-5-0.5-22.5-0.8l-17.5-0.2 2.8 1.5q2.7 1.5 2.4 2.5-0.2 1 4.3 1.2l4.5 0.3-5.5 0.5-5.5 0.5 23 1q23 1 35.8 12.3 12.7 11.2 13 11.4l0.2 0.3 0.2 0.3 0.3 0.2 0.3 0.2 0.2 0.3 0.2 0.3 0.3 0.2 0.3 0.2 0.2 0.3 0.2 0.3 0.3 0.2v6l-0.3 0.2-0.2 0.3h-204l-0.2-0.3-0.3-0.2-0.3-0.2-0.2-0.3-0.2-0.3-0.3-0.2v-5l0.3-0.2 0.2-0.3 0.2-0.3 0.3-0.2 0.3-0.2 0.2-0.3 0.2-0.3 0.3-0.2 0.3-0.2 0.2-0.3 13.5-12q13.5-12 30-12.5t16-1 0.5-0.8q1-0.2 1-1.2t2-1.2q2-0.3 13-0.8l11-0.5 4.5-0.5 4.5-0.5v-0.5l-26.5 0.2q-26.5 0.3-34.5 0.8l-8 0.5-0.2-0.3-0.3-0.2-0.3-47.5q-0.2-47.5 12.3-46.3 12.5 1.3 70 0.8t60-1zm-688.5 270.2l67 0.8v-0.2q0-0.3 1.5-0.8l1.5-0.5 1.5-0.3q1.5-0.2 1 46.8t-1.5 47h-1l-4.5 0.5q-4.5 0.5-4.5 1.5t6.5 1.5 8 3.3q1.5 2.7 13.5 13.2t12.2 10.8l0.3 0.2 0.3 0.2 0.2 0.3 0.2 0.3 0.3 0.2 0.3 0.2 0.2 0.3 0.2 0.3 0.3 0.2 0.5 1 0.5 1v4l-0.3 0.2-0.2 0.3-103 0.3-103 0.2-0.2-1-0.3-1v-4l0.5-1 0.5-1 0.3-0.2 0.2-0.3 0.2-0.3 0.3-0.2 0.3-0.2q0.2-0.3 7.2-6.3t13.8-12.7q6.7-6.8 10.4-7.6l3.8-0.7h4l0.2-0.3 0.3-0.2 0.3-0.2 0.2-0.3-0.2-0.3-0.3-0.2-0.3-0.2-0.2-0.3-4-0.5q-4-0.5-4-0.8v-0.2l-1.5 0.2-1.5 0.3h-1l-0.2-0.3-0.3-0.2v-46q0-46 0.5-47.5t3.2-0.7q2.8 0.7 69.8 1.4zm309.5 0l65.5 0.8 3.5-1.2q3.5-1.3 3.7 45 0.3 46.2 0.6 47.2l0.2 1v0.2q0 0.3-6 0.6l-6 0.2v3h6.2q6.3 0 6.8 1.5t13.5 13 13.3 11.7l0.2 0.3 0.2 0.3 0.3 0.2 0.5 1 0.5 1 0.3 0.2 0.2 0.3 0.2 0.3 0.3 0.2v5l-0.3 0.2-0.2 0.3h-205l-0.2-0.3-0.3-0.2v-6l0.3-0.2 0.2-0.3 0.2-0.3 0.3-0.2 0.5-1 0.5-1 0.3-0.2q0.2-0.3 13.4-12 13.3-11.8 13-12.6-0.2-0.7 6.3-1.4l6.5-0.8v-2l-6-0.2q-6-0.3-6-0.6v-0.2h-0.5v-47q0-47 0.3-47.2 0.2-0.3 3.7 0.2t69 1.2zm312 0.6l63.5 0.2 3.5-1.2q3.5-1.3 4 46 0.5 47.2-2.5 47.2h-3v0.2q0 0.3-3 0.6-3 0.2-2.5 1.4l0.5 1.3 5.8 0.7q5.7 0.8 13.4 8.6 7.8 7.7 13.8 12.7t6.2 5.3l0.3 0.2 0.3 0.2 0.2 0.3 0.2 0.3 0.3 0.2 0.3 0.2 0.2 0.3 0.2 0.3 0.3 0.2 0.3 3.5 0.2 3.5-103-0.2-103-0.3-0.2-0.3-0.3-0.2v-6l0.3-0.2 0.2-0.3 0.2-0.3 0.3-0.2 0.3-0.2 0.2-0.3 0.2-0.3 0.3-0.2 0.3-0.2 0.2-0.3 14-12.5q14-12.5 13.5-13t3.5-1l4-0.5 2-0.3 2-0.2v-2l-5.5-0.2-5.5-0.3v-0.5h-2l0.8-47.5q0.7-47.5 5.7-46.5t5.3 1.2q0.2 0.3 63.7 0.6z" stroke="#fff" fill="#fff"/>
  <g stroke="#01425e" fill="#01425e">
   <path d="m496 322.8v-0.3l10-0.3 10-0.2v98l165.5 0.2 165.5 0.3 0.2 0.3 0.3 0.2 0.3 32.5 0.2 32.5h-21v-45l-155 0.2-155 0.3-0.2 0.3-0.3 0.2-0.3 22-0.2 22h-20v-45h-289v45h-20l0.2-32.5 0.3-32.5 0.3-0.2 0.2-0.3 154-0.3 154-0.2v-97.2z"/>
   <path d="m609.5 619.5h2.5l1 0.5q1 0.5 1 0.8v0.2h-0.2q-0.3 0-0.6 0.5l-0.2 0.5h-96l-0.2 2q-0.3 2-0.6 27.5l-0.2 25.5 165.5 0.2 165.5 0.3 0.2 0.3 0.3 0.2v77l-0.3 0.2-0.2 0.3h-19l-0.2-0.3-0.3-0.2-0.3-28.5-0.2-28.5-155 0.2-155 0.3-0.2 0.3-0.3 0.2-0.3 28.5-0.2 28.5-9.5-0.2-9.5-0.3-0.2-0.3-0.3-0.2-0.3-28.5-0.2-28.5h-289l-0.2 28.5-0.3 28.5-0.3 0.2-0.2 0.3-9.5 0.3-9.5 0.2 0.2-39 0.3-39 0.3-0.2 0.2-0.3 154-0.3 154-0.2v-55h-85l-0.2-0.5-0.3-0.5-0.3-0.2-0.2-0.3 99.5-0.5q99.5-0.5 100-0.5z"/>
  </g>
  <path d="m464 262.2l34-0.2h116l14 0.8q14 0.7 20.2 7 6.3 6.2 6.6 6.4l0.2 0.3 0.2 0.3 0.3 0.2 0.3 0.2 0.2 0.3 0.2 0.3 0.3 0.2 0.3 0.2 0.2 0.3 0.2 0.3 0.3 0.2 0.3 0.2 0.2 0.3 0.2 0.3 0.3 0.2 0.3 0.2 0.2 0.3 0.2 0.3 0.3 0.2 0.3 1 0.2 1h-308l0.2-1 0.3-1 0.3-0.2 0.2-0.3 0.2-0.3 0.3-0.2 0.3-0.2 0.2-0.3 0.2-0.3 0.3-0.2 0.3-0.2 0.2-0.3 0.2-0.3 0.3-0.2 0.3-0.2 0.2-0.3 0.2-0.3 0.3-0.2 0.3-0.2 0.2-0.3 6.5-6.5q6.5-6.5 36.5-7t64-0.8z" stroke="#747474" fill="#747474"/>
  <path d="m374 66.5l6-0.5v0.2q0 0.3 109 0.6l109 0.2h43v10h-2v38.5q0 38.5-1 38.3-1-0.3-1.5 1.4-0.5 1.8-11 1l-10.5-0.7-2-0.3-2-0.2-0.2-1-0.3-1-0.3-1-0.2-1 1-0.2 1-0.3 2.8-2.3q2.7-2.2 3.2-3.2l0.5-1 0.3-0.2 0.2-0.3 1-0.3 1-0.2-0.2-1-0.3-1-0.3-0.2-0.2-0.3-1-0.5-1-0.5-0.2-0.3-0.3-0.2-0.3-0.2-0.2-0.3-1-0.3-1-0.2v2l-1 0.2q-1 0.3-2 0.6-1 0.2-1.5 1.4-0.5 1.3-1.3 0-0.7-1.2-1.4-1-0.8 0.3-5.8-0.4-5-0.8-5 2.4 0 3.3-3 2.8t-5 0-6 1.2q-4 0.8-4 1.8t-2 1.5-2.2-0.5q-0.3-1-1-0.8-0.8 0.3-1.3 1-0.5 0.8-1.5 0.8t-1.2-1q-0.3-1-3.6 0.2-3.2 1.3-6.7 1-3.5-0.2-3.5-1.2t-4.5-0.8q-4.5 0.3-4 1.6 0.5 1.2-12 1-12.5-0.3-13.3-1-0.7-0.8-4-1.8l-3.2-1 0.2-1 0.3-1 0.3 0.2 0.2 0.3 0.2 0.3 0.3 0.2 1.3-3.2q1.2-3.3 2.2-3.6l1-0.2-0.2-1.5-0.3-1.5-0.3-0.2-0.2-0.3-0.2-0.3-0.3-0.2-0.5 1-0.5 1-0.5-1-0.5-1-0.5 1.5q-0.5 1.5-0.8 1.3l-0.2-0.3-0.2-0.3-0.3-0.2-0.3-0.2-0.2-0.3-0.2-0.3q-0.3-0.2-2.6-0.4-2.2-0.3-4.7-0.8l-2.5-0.5-0.5 1.7q-0.5 1.8 0.3 2.3 0.7 0.5 0.2 1.5l-0.5 1-0.3 0.2-0.2 0.3-0.2 0.3-0.3 0.2-0.3 0.2-0.2 0.3-0.2 0.3-0.3 0.2-0.3 0.2-0.2 0.3h-1q-1 0-2.2-2.3-1.3-2.2-4-2.4-2.8-0.3-3.6 0.4-0.7 0.8-2 1.3-1.2 0.5-1.4 1.5-0.3 1-1.6 0.5-1.2-0.5-1.4 0.5-0.3 1-6 0.8-5.8-0.3-6.3-1.6-0.5-1.2-4-1.4l-3.5-0.3-0.2-0.3-0.3-0.2-0.3-1-0.2-1 1-0.2 1-0.3-1-0.5-1-0.5 2-0.5q2-0.5 2.8-1.8 0.7-1.2 0.7-4.7t0.7-4.3q0.8-0.7 0.6-2-0.3-1.2 0.7-3.2t-0.5-3-0.8-1.5q0.8-0.5 0.3-5.5t-2-5.2q-1.5-0.3-2.3-3-0.7-2.8-2-3.6-1.2-0.7-5.7-0.7t-5-1.3q-0.5-1.2-2.5-1.2t-2 1-2 1-2.8 2.5q-0.7 2.5-0.7 5t-1.3 2.3q-1.2-0.3-3.7 0.2l-2.5 0.5 0.2 0.3 0.3 0.2v2q0 2 0.5 3t1.2 3.8q0.8 2.7 2.3 3 1.5 0.2 1.3 4.7-0.3 4.5 0 4.7l0.2 0.3-2.5 0.5q-2.5 0.5-3.3 1.8-0.7 1.2-2 1-1.2-0.3-2.7 0.2l-1.5 0.5-0.2 0.3-0.3 0.2-0.3 0.2-0.2 0.3 0.2 0.3 0.3 0.2 0.3 0.2 0.2 0.3 0.2 0.3 0.3 0.2v1l-0.3 0.2-0.2 0.3 0.2 0.3 0.3 0.2 0.3 0.2 0.2 0.3 0.2 0.3 0.3 0.2 0.3 0.2 0.2 0.3 0.2 0.3 0.3 0.2 0.5-0.5q0.5-0.5 0.2 0.7-0.2 1.3 0.8 1.6 1 0.2 1-1.3t1-1.5h1l0.2 1 0.3 1 0.3 0.2 0.2 0.3 1.5 0.3 1.5 0.2v2l-2.5 0.2-2.5 0.3-1 0.3q-1 0.2-1.2 1.2-0.3 1-5 1h-4.8v1q0 1 1.5 1t1.5 1.5-1.5 1.5-1.7 1q-0.3 1-2 0.5-1.8-0.5-1.8 1.5t-3 2-2.8 1q0.3 1 2 2.5 1.8 1.5 1.6 2.5l-0.3 1-0.3 1-0.2 1-1 0.2-1 0.3-2.5 0.5q-2.5 0.5-21 0.8-18.5 0.2-18.7-1.3-0.3-1.5-1.6-1-1.2 0.5-1.4-4.5-0.3-5-1-50-0.8-45 5.2-45.5zm132.2 66.3l-0.2-0.3 0.2-0.3 0.3-0.2v0.5q0 0.5-0.3 0.3zm54 17q-0.2-0.3 0-0.6 0.3-0.2 0.3 0.3t-0.3 0.3z" stroke="#f9fafb" fill="#f9fafb"/>
  <path d="m381.5 65.2l-1.5 0.8-6 0.5q-6 0.5-5.2 45.5 0.7 45 1 50 0.2 5 1.4 4.5 1.3-0.5 1.6 1 0.2 1.5 18.7 1.3 18.5-0.3 21-0.8l2.5-0.5 0.8-0.7q0.7-0.8-0.6-4.8-1.2-4 0.3-3.8 1.5 0.3 3-0.2t0.5-0.8q-1-0.2-1-1.2t2.8-1q2.7 0 3-1 0.2-1 1.7-1t1.5-1.5-1.5-1.5-1.5-1v-1h4.8q4.7 0 5-1 0.2-1 1.2-1.2l1-0.3 2.5-0.3 2.5-0.2v-2l-2.5-0.2q-2.5-0.3-5-0.3t-2.3-1.3l0.3-1.2-0.3-0.2-0.2-0.3-0.2-0.3-0.3-0.2-0.3-0.2-0.2-0.3 0.2-0.3 0.3-0.2v-1l-0.3-0.2-0.2-0.3-0.2-0.3-0.3-0.2-0.3-0.2-0.2-0.3 0.2-0.3 0.3-0.2 0.3-0.2 0.2-0.3 1.5-0.5q1.5-0.5 2.7-0.2 1.3 0.2 2-1 0.8-1.3 3.3-1.8l2.5-0.5-0.2-0.3q-0.3-0.2 0-4.7 0.2-4.5-1.3-4.7-1.5-0.3-2.3-3-0.7-2.8-1.2-3.8t-0.5-3v-2l-0.3-0.2-0.2-0.3 2.5-0.5q2.5-0.5 3.7-0.2 1.3 0.2 1.3-2.3t0.7-5q0.8-2.5 2.8-2.5t2-1 2-1 2.5 1.2q0.5 1.3 5 1.3t5.7 0.7q1.3 0.8 2 3.6 0.8 2.7 2.3 3 1.5 0.2 2.3 3.2 0.7 3 0.4 5-0.2 2-1 2.5-0.7 0.5 0.8 1.5t0.5 3-0.7 3.2q0.2 1.3-0.6 2-0.7 0.8-0.7 4.3t-0.7 4.7q-0.8 1.3-2.8 1.8l-2 0.5 1 0.5 1 0.5-1 0.3-1 0.2 0.2 1 0.3 1 0.3 0.2 0.2 0.3 3.5 0.3q3.5 0.2 4 1.4 0.5 1.3 6.3 1.6 5.7 0.2 6-0.8 0.2-1 1.4-0.5 1.3 0.5 1.6-0.5 0.2-1 1.4-1.5 1.3-0.5 2-1.3 0.8-0.7 3.6-0.4 2.7 0.2 4 2.4 1.2 2.3 2.2 2.3h1l0.2-0.3 0.3-0.2 0.3-0.2 0.2-0.3 0.2-0.3 0.3-0.2 0.3-0.2 0.2-0.3 0.2-0.3 0.3-0.2 0.5-1q0.5-1-0.2-1.5-0.8-0.5-0.6-2.5l0.3-2v-3l0.3 0.2 0.2 0.3 0.2 0.3 0.3 0.2 0.3-0.2 0.2-0.3 0.2-0.3 0.3-0.2v2l2.3 1.2q2.2 1.3 4.2 1.3t3.5-0.3l1.5-0.2 0.2 1 0.3 1 0.5-1 0.5-1 0.3 0.2 0.2 0.3 0.2 0.3 0.3 0.2 0.3 1.5 0.2 1.5-1 0.2q-1 0.3-2.2 3.6l-1.3 3.2-0.3-0.2-0.2-0.3-0.2-0.3-0.3-0.2-0.3 1-0.2 1 3.2 1q3.3 1 4 1.8 0.8 0.7 13.3 1 12.5 0.2 12-1-0.5-1.3 13-1.3t19-1.5 8-2 6 0 3.5-2.8q0-3.2 5-2.4 5 0.7 8 0.2t4-0.8l1-0.2v-2l1 0.2 1 0.3 0.2 0.3 0.3 0.2 0.3 0.2 0.2 0.3 1 0.5 1 0.5 0.2 0.3 0.3 0.2 0.3 1 0.2 1-1 0.2-1 0.3-0.2 0.3-0.3 0.2-0.5 1q-0.5 1-3.2 3.2l-2.8 2.3-1 0.3-1 0.2 0.2 1 0.3 1 0.3 1 0.2 1 2 0.2 2 0.3 10.5 0.7q10.5 0.8 11-1 0.5-1.7 1.5-1.4 1 0.2 1-38.3v-38.5h2l-0.2 82-0.3 82-0.3 0.2-0.2 0.3h-8.5q-8.5 0-39 0t-46 1.5-14 2-5.5 1.5-5 1.5-5.5 1-43 1.5-36 0.3q-0.5-0.8-4.5-1-4-0.3-4.5 0.4-0.5 0.8-20.5 1.8l-20 1-10.5-0.2-10.5-0.3-1-0.5-1-0.5v-0.5l10.5-0.2 10.5-0.3 0.2-0.3 0.3-0.2 0.3-1.5 0.2-1.5-1-0.2-1-0.3-11.5-0.3-11.5-0.2 0.2-92.5q0.3-92.5 9-92.3 8.8 0.3 7.6 1-1.3 0.8 1.4 1.6 2.8 0.7 1.3 1.4zm134.7 73.6l-0.2-0.3 0.2-0.3q0.3-0.2 0.3 0.3t-0.3 0.3zm-83 2q-0.2-0.3 0-0.6 0.3-0.2 0.3 0.3t-0.3 0.3zm176 3q-0.2-0.3 0-0.6 0.3-0.2 0.3 0.3t-0.3 0.3zm-45 7q-0.2-0.3 0-0.6 0.3-0.2 0.3 0.3t-0.3 0.3zm-2 1q-0.2-0.3 0-0.6 0.3-0.2 0.3 0.3t-0.3 0.3z" stroke="#d9e3ef" fill="#d9e3ef"/>
  <path d="m647.5 257.2l0.5-0.2 28.2 25q28.3 25 28.8 26l0.5 1 0.5 1 0.5 1 0.5 2.5 0.5 2.5v2h-0.5v-0.5l-138-0.5q-138-0.5-161-1t-24.8-1.2q-1.7-0.8-1-1.6 0.8-0.7-0.7-1-1.5-0.2-1.5-12.7t1.5-12.7q1.5-0.3 0-0.8t4-1.5l5.5-1v-0.5h269l-0.2-1-0.3-1-0.3-0.2-0.2-0.3-0.2-0.3-0.3-0.2-0.3-0.2-0.2-0.3-0.2-0.3-0.3-0.2-0.3-0.2-0.2-0.3-0.2-0.3-0.3-0.2-0.3-0.2-0.2-0.3-0.2-0.3-0.3-0.2-0.3-0.2-0.2-0.3-0.2-0.3q-0.3-0.2-6.6-6.4-6.2-6.3-20.2-7l-14-0.8v-0.5l-3-0.5-3-0.5 2.5-0.5 2.5-0.5 17-1q17-1 17.5-1.3z" stroke="#bbbcbe" fill="#bbbcbe"/>
  <path d="m269.5 758l1.5-0.5 1.5-0.3q1.5-0.2 1 46.8t-1.5 47h-1l-1.5-0.2q-1.5-0.3-66.5-0.6l-65-0.2-3-0.2-3-0.3-0.2-0.3q-0.3-0.2 0-19.2 0.2-19 4.7-19.2 4.5-0.3 5-2 0.5-1.8 5-0.8t4.5 2 5.5 0.2q5.5-0.7 11.7-4 6.3-3.2 16.6-9.4 10.2-6.3 23.2-10.3t36.5-6.5 24.3-3.2q0.7-0.8 1.7 2.2l1 3 0.3-11.5q0.2-11.5-1.8-11.5h-2v-0.2q0-0.3 1.5-0.8z" stroke="#0491c9" fill="#0491c9"/>
  <path d="m583.8 850l0.2 1-4-0.2q-4-0.3-35.5-0.6l-31.5-0.2v-0.5l8.5-1.5q8.5-1.5 27.5-2l19-0.5-57.5-0.5-57.5-0.5-2-0.5-2-0.5-0.2-0.3-0.3-0.2-0.3-0.2-0.2-0.3-0.2-0.3-0.3-0.2-0.3-0.2-0.2-0.3-0.2-0.3-0.3-0.2v-2l0.3-0.2 0.2-0.3 0.2-0.3 0.3-0.2 0.5-1.5q0.5-1.5 6-7t6-8-1-5.5l-1.5-3v-2l0.3-0.2 0.2-0.3 0.2-0.3 0.3-0.2 0.3-0.2 0.2-0.3 0.2-0.3 0.3-0.2 0.5 2.5q0.5 2.5 3.5 0t5.3-1.7q2.2 0.7 17.7-8.8t28-13.5 31.5-6.5 26-3 7.2-0.2q0.3 0.2 0.8 1.7l0.5 1.5 0.3-11 0.2-11h-5l3.5-1.2q3.5-1.3 3.7 45 0.3 46.2 0.6 47.2z" stroke="#0495cf" fill="#0495cf"/>
  <path d="m249 581.2l-15-0.2h-62v-0.2q0-0.3 49.5-0.6l49.5-0.2-0.2-1.5-0.3-1.5-0.3-0.2-0.2-0.3-1.5-0.5-1.5-0.5-62-0.5-62-0.5-1.5-0.5-1.5-0.5-0.2-0.3-0.3-0.2-0.5-1-0.5-1v-3l0.5-1 0.5-1 0.3-0.2 0.2-0.3 0.2-0.3q0.3-0.2 4.3-4.2t6-8 0.7-4.5q-1.2-0.5-1.7-4.5l-0.5-4h2l-0.2 1-0.3 1-0.3 1-0.2 1 1-0.2 1-0.3 2-1.5q2-1.5 5.5-1.5t20.5-10 31.5-14 36.5-6 22.2-1.7q0.3 0.2 0.8 2.7l0.5 2.5 0.3-12 0.2-12h-13v-0.5l7.5-0.7q7.5-0.8 7.5 46 0 46.7-5 46.7t-20-0.3z" stroke="#0895cc" fill="#0895cc"/>
  <path d="m138 850.2v-0.2l65 0.2q65 0.3 66.5 0.6l1.5 0.2-4.5 0.5q-4.5 0.5-4.5 1.5t6.5 1.5 8 3.3q1.5 2.7 13.5 13.2t12.2 10.8l0.3 0.2 0.3 0.2 0.2 0.3 0.2 0.3 0.3 0.2 0.3 0.2 0.2 0.3 0.2 0.3 0.3 0.2 0.5 1 0.5 1v4l-0.3 0.2-0.2 0.3-103 0.3-103 0.2-0.2-1-0.3-1v-4l0.5-1 0.5-1 0.3-0.2 0.2-0.3 0.2-0.3 0.3-0.2 0.3-0.2q0.2-0.3 7.2-6.3t13.8-12.7q6.7-6.8 10.4-7.6l3.8-0.7h4l0.2-0.3 0.3-0.2 0.3-0.2 0.2-0.3-0.2-0.3-0.3-0.2-0.3-0.2-0.2-0.3-4-0.5q-4-0.5-4-0.8v-0.2l3-0.2 3-0.3v-0.3z" stroke="#a9abad" fill="#a9abad"/>
  <path d="m890.2 496l0.3-1v34q0 34-0.5 35.5t-0.8 0.5q-0.2-1-57.2-1.8-57-0.7-59.5-1.4-2.5-0.8-2.3-2.8l0.3-2 1.7-5.5q1.8-5.5 7-8.5 5.3-3 19.3-13.5t14.3-11.5q0.2-1-1.8-1t-2-1v-1l5.5-0.2q5.5-0.3 19.5-5.3t22-7 21-3.7q13-1.8 13.2-2.8z" stroke="#0499d2" fill="#0499d2"/>
  <path d="m891 851h-3l-0.5-0.2q-0.5-0.3-31.5-0.6l-31-0.2 1-0.8q1-0.7 6.5-1.2l5.5-0.5 4-0.5 4-0.5-40.5-0.5q-40.5-0.5-41.5-1l-1-0.5-0.2-0.3-0.3-0.2-0.3-0.2-0.2-0.3-1-0.5-1-0.5-0.2-0.3-0.3-0.2-0.3-0.2-0.2-0.3-0.2-0.3-0.3-0.2-0.3-0.2-0.2-0.3-0.2-0.3-0.3-0.2v-2l0.3-0.2 0.2-0.3 0.2-0.3 0.3-0.2 0.5-1q0.5-1 5.2-6.2 4.8-5.3 5.6-7.6 0.7-2.2 1.4-2.7 0.8-0.5 0.8-1.5t-1.2-1.5q-1.3-0.5-1.8-3l-0.5-2.5 0.3-0.2 0.2-0.3 0.2-0.3 0.3-0.2 0.3 1.5 0.2 1.5 4-2q4-2 4-1t4.5-0.8q4.5-1.7 17.5-9.7t25-12 31-6.5 27-3.2q8-0.8 8.2 0.2l0.3 1 0.3-10 0.2-10h-6l3.5-1.2q3.5-1.3 4 46 0.5 47.2-2.5 47.2z" stroke="#0396ce" fill="#0396ce"/>
  <path d="m792 850.2l33-0.2 31 0.2q31 0.3 31.5 0.6l0.5 0.2v0.2q0 0.3-3 0.6-3 0.2-2.5 1.4l0.5 1.3 5.8 0.7q5.7 0.8 13.4 8.6 7.8 7.7 13.8 12.7t6.2 5.3l0.3 0.2 0.3 0.2 0.2 0.3 0.2 0.3 0.3 0.2 0.3 0.2 0.2 0.3 0.2 0.3 0.3 0.2 0.3 3.5 0.2 3.5-103-0.2-103-0.3-0.2-0.3-0.3-0.2v-6l0.3-0.2 0.2-0.3 0.2-0.3 0.3-0.2 0.3-0.2 0.2-0.3 0.2-0.3 0.3-0.2 0.3-0.2 0.2-0.3 14-12.5q14-12.5 13.5-13t3.5-1l4-0.5 2-0.3 2-0.2v-2l-5.5-0.2-5.5-0.3v-0.5l5-0.2q5-0.3 38-0.6z" stroke="#a9abad" fill="#a9abad"/>
  <path d="m201 758.2l67 0.8h2q2 0 1.8 11.5l-0.3 11.5-1-3q-1-3-1.7-2.2-0.8 0.7-24.3 3.2t-36.5 6.5-23.2 10.3q-10.3 6.2-16.6 9.4-6.2 3.3-11.7 4-5.5 0.8-5.5-0.2t-4.5-2-5 0.8q-0.5 1.7-5 2-4.5 0.2-4.7 19.2-0.3 19 0 19.2l0.2 0.3 3 0.3 3 0.2v0.5l-3 0.3-3 0.2-1.5 0.2-1.5 0.3h-1l-0.2-0.3-0.3-0.2v-46q0-46 0.5-47.5t3.2-0.7q2.8 0.7 69.8 1.4z" stroke="#046f9d" fill="#046f9d"/>
  <path d="m442 850.8l4-0.3 33.5-0.3 33.5-0.2 31.5 0.2q31.5 0.3 35.5 0.6l4 0.2v0.2q0 0.3-6 0.6l-6 0.2v3h6.2q6.3 0 6.8 1.5t13.5 13 13.3 11.7l0.2 0.3 0.2 0.3 0.3 0.2 0.5 1 0.5 1 0.3 0.2 0.2 0.3 0.2 0.3 0.3 0.2v5l-0.3 0.2-0.2 0.3h-205l-0.2-0.3-0.3-0.2v-6l0.3-0.2 0.2-0.3 0.2-0.3 0.3-0.2 0.5-1 0.5-1 0.3-0.2q0.2-0.3 13.4-12 13.3-11.8 13-12.6-0.2-0.7 6.3-1.4l6.5-0.8v-2l-6-0.2q-6-0.3-6-0.6v-0.2l4-0.2z" stroke="#a9abad" fill="#a9abad"/>
  <path d="m200 489.2l59 0.8h13l-0.2 12-0.3 12-0.5-2.5q-0.5-2.5-0.8-2.7-0.2-0.3-9.7 0.2t-26.5 3-28 6-25 12-18.5 10.2q-4.5 1.8-4.5 0.8t-3 0.8l-3 1.7-1 0.3-1 0.2-0.2-1-0.3-1 0.3 3q0.2 3 1.4 3.5 1.3 0.5-0.7 4.5t-6 8-4.3 4.2l-0.2 0.3-0.2 0.3-0.3 0.2-0.5 1-0.5 1v3l0.5 1 0.5 1 0.3 0.2 0.2 0.3 1.5 0.5 1.5 0.5 62 0.5 62 0.5 1.5 0.5 1.5 0.5 0.2 0.3 0.3 0.2 0.3 1.5 0.2 1.5-49.5 0.2q-49.5 0.3-49.5 0.6v0.2l-16 0.2q-16 0.3-22 0.3h-6l-0.2-0.3-0.3-0.2v-1q0-1-0.3-47-0.2-46 6.8-45.2 7 0.7 66 1.4z" stroke="#036d9b" fill="#036d9b"/>
  <path d="m364 251h1v0.5l1 0.5 1 0.5 10.5 0.3 10.5 0.2v0.2q0 0.3 2 0.8l2 0.5 23.5 2.5q23.5 2.5 56.5 3l33 0.5-3.5 0.5-3.5 0.5v0.5l-34 0.2q-34 0.3-64 0.8t-36.5 7l-6.5 6.5-0.2 0.3-0.3 0.2-0.3 0.2-0.2 0.3-0.2 0.3-0.3 0.2-0.3 0.2-0.2 0.3-0.2 0.3-0.3 0.2-0.3 0.2-0.2 0.3-0.2 0.3-0.3 0.2-0.3 0.2-0.2 0.3-0.2 0.3-0.3 0.2-0.3 1-0.2 1h39v0.5l-5.5 1q-5.5 1-4 1.5t0 0.8q-1.5 0.2-1.5 12.7t1.5 12.7q1.5 0.3 0.7 1-0.7 0.8 1 1.6 1.8 0.7 24.8 1.2t161 1l138 0.5v0.5l-0.2 0.5-0.3 0.5-0.3 0.2-0.2 0.3-0.2 0.3-0.3 0.2-0.3 0.2-0.2 0.3-0.2 0.3-0.3 0.2-0.3 0.2-0.2 0.3-93.5 0.3-93.5 0.2-0.2 4.5-0.3 4.5h-0.5v-9l-10 0.2-10 0.3v0.5l-0.5-0.2-0.5-0.3-93-0.5-93-0.5-0.2-0.3-0.3-0.2-0.3-0.2-0.2-0.3-0.2-0.3-0.3-0.2-0.3-0.2-0.2-0.3-0.2-0.3-0.3-0.2-0.3-0.2-0.2-0.3-0.2-0.3-0.3-0.2v-7l2.3-3.8q2.2-3.7 28.4-26.4 26.3-22.8 26.6-26.3 0.2-3.5 1.2-3.5z" stroke="#97989a" fill="#97989a"/>
  <path d="m512 489.8l60 0.2h9l-0.2 10.5-0.3 10.5-0.5-1q-0.5-1-1-2t-0.8 0q-0.2 1-1.2 0.8-1-0.3-8.5 0.2t-25 3-29.5 6.5-27.5 13.5-17.7 8.8q-2.3-0.8-5.3 1.7t-3.5 0.5l-0.5-2-0.3 0.2-0.2 0.3-0.2 0.3-0.3 0.2 0.3 3q0.2 3 1.4 3.5 1.3 0.5 0 3.7-1.2 3.3-6.7 9.3t-5.7 6.3l-0.3 0.2-0.5 1-0.5 1v2l0.3 0.2 0.2 0.3 0.2 0.3 0.3 0.2 0.3 0.2 0.2 0.3 0.2 0.3 0.3 0.2 0.3 0.2 0.2 0.3 5 2q5 2 10 2.5t26.5 1l21.5 0.5v0.5h-23l-20.5 0.2q-20.5 0.3-26 0.6l-5.5 0.2 0.8-47.5q0.7-47.5 7.4-46.3 6.8 1.3 66.8 1.6z" stroke="#03709f" fill="#03709f"/>
  <path d="m889.5 488l2.5-0.5 1-0.3 1-0.2v96l-1-0.2-1-0.3-5-0.5q-5-0.5-22.5-0.8l-17.5-0.2h-30l-26.5 0.2q-26.5 0.3-34.5 0.8l-8 0.5-0.2-0.3-0.3-0.2-0.3-47.5q-0.2-47.5 12.3-46.3 12.5 1.3 70 0.8t60-1zm0.7 8l0.3-1v34q0 34-0.5 35.5t-0.8 0.5q-0.2-1-57.2-1.8-57-0.7-59.5-1.4-2.5-0.8-2.3-2.8l0.3-2 1.7-5.5q1.8-5.5 7-8.5 5.3-3 19.3-13.5t14.3-11.5q0.2-1-1.8-1t-2-1v-1l5.5-0.2q5.5-0.3 19.5-5.3t22-7 21-3.7q13-1.8 13.2-2.8z" stroke="#0372a1" fill="#0372a1"/>
  <path d="m192 581.2v-0.2h42l1.8 1.5q1.7 1.5 0.4 2.3-1.2 0.7 19 2.4 20.3 1.8 33.6 13.6 13.2 11.7 13.4 12l0.3 0.2 0.3 0.2 0.2 0.3 0.2 0.3 0.3 0.2 0.3 0.2 0.2 0.3 0.2 0.3 0.3 0.2 0.5 1 0.5 1v3l-0.3 0.2-0.2 0.3-0.2 0.3-0.3 0.2-0.3 0.2-0.2 0.3h-204l-0.2-0.3-0.3-0.2-0.3-0.2-0.2-0.3-0.2-0.3-0.3-0.2v-4l0.5-1 0.5-1 0.3-0.2 0.2-0.3 0.2-0.3 0.3-0.2 0.3-0.2 0.2-0.3 0.2-0.3q0.3-0.2 13-11.4 12.8-11.3 26.8-11.8l14-0.5 3.5-0.5 3.5-0.5-5-0.5-5-0.5 3.5-0.3 3.5-0.2v-3l1.5-0.2q1.5-0.3 16.5-0.8l15-0.5v-0.3z" stroke="#a7a8aa" fill="#a7a8aa"/>
  <path d="m817 581.2v-0.2h30l2.8 1.5q2.7 1.5 2.4 2.5-0.2 1 4.3 1.2l4.5 0.3-5.5 0.5-5.5 0.5 23 1q23 1 35.8 12.3 12.7 11.2 13 11.4l0.2 0.3 0.2 0.3 0.3 0.2 0.3 0.2 0.2 0.3 0.2 0.3 0.3 0.2 0.3 0.2 0.2 0.3 0.2 0.3 0.3 0.2v6l-0.3 0.2-0.2 0.3h-204l-0.2-0.3-0.3-0.2-0.3-0.2-0.2-0.3-0.2-0.3-0.3-0.2v-5l0.3-0.2 0.2-0.3 0.2-0.3 0.3-0.2 0.3-0.2 0.2-0.3 0.2-0.3 0.3-0.2 0.3-0.2 0.2-0.3 13.5-12q13.5-12 30-12.5t16-1 0.5-0.8q1-0.2 1-1.2t2-1.2q2-0.3 13-0.8l11-0.5 4.5-0.5 4.5-0.5v-0.3z" stroke="#a6a7a9" fill="#a6a7a9"/>
  <path d="m489 581.2v-0.2h52l2.2 1.5q2.3 1.5 1.6 2.3-0.8 0.7 19.4 2.4 20.3 1.8 34 13.6 13.8 11.7 14 12l0.3 0.2 0.5 1 0.5 1 0.3 0.2 0.2 0.3 0.2 0.3 0.3 0.2 0.3 3 0.2 3h-2l-0.2-1-0.3-1-0.3-0.2-0.2-0.3h-2.5q-0.5 0-100 0.5l-99.5 0.5 0.2 0.3 0.3 0.2 0.3 0.5 0.2 0.5-1-0.2-1-0.3-0.2-0.3-0.3-0.2v-6l0.3-1 0.2-1 14.5-12.2q14.5-12.3 20-12.3t12.5 0h7l4-0.5 4-0.5-5-0.5-5-0.5 4.5-0.3 4.5-0.2 1-1.8q1-1.7 9.5-2.2l8.5-0.5v-0.3z" stroke="#abacae" fill="#abacae"/>
  <path d="m822.5 758.8l63.5 0.2h6l-0.2 10-0.3 10-0.3-1q-0.2-1-8.2-0.2-8 0.7-27 3.2t-31 6.5-25 12-17.5 9.7q-4.5 1.8-4.5 0.8t-4 1l-4 2-0.2-1.5-0.3-1.5-0.3 0.2-0.2 0.3-0.2 0.3-0.3 0.2 0.5 2.5q0.5 2.5 1.8 3 1.2 0.5 1.2 1.5t-0.8 1.5q-0.7 0.5-1.4 2.7-0.8 2.3-5.6 7.6-4.7 5.2-5.2 6.2l-0.5 1-0.3 0.2-0.2 0.3-0.2 0.3-0.3 0.2v2l0.3 0.2 0.2 0.3 0.2 0.3 0.3 0.2 0.3 0.2 0.2 0.3 0.2 0.3 0.3 0.2 0.3 0.2 0.2 0.3 1 0.5 1 0.5 0.2 0.3 0.3 0.2 0.3 0.2 0.2 0.3 1 0.5q1 0.5 41.5 1l40.5 0.5-4 0.5-4 0.5-5.5 0.5q-5.5 0.5-6.5 1.2l-1 0.8-33 0.2q-33 0.3-38 0.6l-5 0.2h-2l0.8-47.5q0.7-47.5 5.7-46.5t5.3 1.2q0.2 0.3 63.7 0.6z" stroke="#056f9d" fill="#056f9d"/>
  <path d="m557 581.2l-16-0.2h-29v-0.5l-21.5-0.5q-21.5-0.5-26.5-1t-10-2.5l-5-2-0.2-0.3-0.3-0.2-0.3-0.2-0.2-0.3-0.2-0.3-0.3-0.2-0.3-0.2-0.2-0.3-0.2-0.3-0.3-0.2v-2l0.5-1 0.5-1 0.3-0.2q0.2-0.3 5.7-6.3t6.7-9.3q1.3-3.2 0-3.7-1.2-0.5-1.4-3.5l-0.3-3 0.3-0.2 0.2-0.3 0.2-0.3 0.3-0.2 0.5 2q0.5 2 3.5-0.5t5.3-1.7q2.2 0.7 17.7-8.8t27.5-13.5 29.5-6.5 25-3 8.5-0.2q1 0.2 1.2-0.8 0.3-1 0.8 0t1 2l0.5 1 0.3-10.5 0.2-10.5h-9v-0.5l5.8-0.7q5.7-0.8 6 46.2 0.2 47-5.3 46.8-5.5-0.3-21.5-0.6z" stroke="#0694cb" fill="#0694cb"/>
  <path d="m626.5 60.2l20.5-0.2v186l-11.5 0.5q-11.5 0.5-11.5 2t12.5 2 12.3 2.5q-0.3 2-0.6 3l-0.2 1-0.5 0.2q-0.5 0.3-17.5 1.3l-17 1-2.5 0.5-2.5 0.5 3 0.5 3 0.5v0.5h-116v-0.5l3.5-0.5 3.5-0.5-33-0.5q-33-0.5-56.5-3l-23.5-2.5-2-0.5q-2-0.5-2-0.8v-0.2l20-1q20-1 20.5-1.8 0.5-0.7 4.5-0.4 4 0.2 4.5 1 0.5 0.7 36-0.3t43-1.5 5.5-1 5-1.5 5.5-1.5 14-2 46-1.5 39 0h8.5l0.2-0.3 0.3-0.2 0.3-82 0.2-82v-10h-43v-0.5l-3.5-0.5-3.5-0.5 2-0.5 2-0.5 4.5-0.5 4.5-0.5-3.5-0.5-3.5-0.5 4.5-1q4.5-1 25-1.3z" stroke="#b5b7b9" fill="#b5b7b9"/>
  <path d="m510.5 758.2l65.5 0.8h5l-0.2 11-0.3 11-0.5-1.5q-0.5-1.5-0.8-1.7-0.2-0.3-7.2 0.2t-26 3-31.5 6.5-28 13.5-17.7 8.8q-2.3-0.8-5.3 1.7t-3.5 0l-0.5-2.5-0.3 0.2-0.2 0.3-0.2 0.3-0.3 0.2-0.3 0.2-0.2 0.3-0.2 0.3-0.3 0.2v2l1.5 3q1.5 3 1 5.5t-6 8-6 7l-0.5 1.5-0.3 0.2-0.2 0.3-0.2 0.3-0.3 0.2v2l0.3 0.2 0.2 0.3 0.2 0.3 0.3 0.2 0.3 0.2 0.2 0.3 0.2 0.3 0.3 0.2 0.3 0.2 0.2 0.3 2 0.5 2 0.5 57.5 0.5 57.5 0.5-19 0.5q-19 0.5-27.5 2l-8.5 1.5v0.5l-33.5 0.2-33.5 0.3-4 0.3-4 0.2h-0.5v-47q0-47 0.3-47.2 0.2-0.3 3.7 0.2t69 1.2z" stroke="#076d9a" fill="#076d9a"/>
 </g>
</svg>
